<svg width="1080" height="1080" viewBox="0 0 1080 1080" fill="none" xmlns="http://www.w3.org/2000/svg">
<g clip-path="url(#clip0_2_28)">
<path d="M0 0H680C900.914 0 1080 179.086 1080 400V1080H0V0Z" fill="#FFD9F5"/>
<path d="M143 452.58C146.4 451.22 149.573 449.973 152.52 448.84C155.467 447.48 158.527 446.233 161.7 445.1C164.873 443.967 167.707 442.493 170.2 440.68C172.92 438.64 175.753 436.94 178.7 435.58C182.553 433.767 185.84 431.613 188.56 429.12C191.28 426.4 194.113 423.793 197.06 421.3C200.46 418.127 203.067 414.5 204.88 410.42C206.693 406.34 208.167 402.033 209.3 397.5C208.393 395.687 207.487 393.987 206.58 392.4C205.9 390.587 205.22 388.887 204.54 387.3C199.1 383.22 193.433 381.52 187.54 382.2C186.18 382.2 184.707 382.087 183.12 381.86C181.76 381.407 180.4 381.18 179.04 381.18C177.907 380.953 176.773 380.727 175.64 380.5C174.507 380.273 173.373 380.387 172.24 380.84C168.387 381.747 164.647 382.767 161.02 383.9C157.393 384.807 153.653 385.827 149.8 386.96C149.12 387.187 148.44 387.413 147.76 387.64C147.307 387.867 146.74 388.207 146.06 388.66C149.007 395.46 149.913 402.6 148.78 410.08C147.873 415.973 147.08 421.867 146.4 427.76C145.72 433.653 144.473 439.547 142.66 445.44C142.433 446.573 142.32 447.707 142.32 448.84C142.547 449.747 142.773 450.993 143 452.58ZM123.28 565.46C128.947 564.327 134.5 563.533 139.94 563.08C145.607 562.4 151.047 561.153 156.26 559.34C158.527 558.433 160.567 557.527 162.38 556.62C164.42 555.713 166.46 554.693 168.5 553.56C170.54 552.653 172.58 551.86 174.62 551.18C176.887 550.273 178.927 549.253 180.74 548.12C187.313 544.493 189.92 538.713 188.56 530.78C187.653 525.793 185.727 521.033 182.78 516.5C180.06 511.74 176.773 507.32 172.92 503.24C169.067 499.16 164.873 495.533 160.34 492.36C156.033 489.187 151.727 486.58 147.42 484.54C145.607 484.767 143.793 484.993 141.98 485.22C140.393 485.22 138.693 485.333 136.88 485.56C136.427 487.147 135.973 488.62 135.52 489.98C135.067 491.34 134.727 492.7 134.5 494.06C134.047 496.78 133.593 499.5 133.14 502.22C132.687 504.94 132.233 507.66 131.78 510.38C131.553 511.74 131.213 513.1 130.76 514.46C130.307 515.593 129.853 516.727 129.4 517.86C128.947 520.353 128.947 522.847 129.4 525.34C129.853 527.38 129.74 529.307 129.06 531.12C128.38 532.933 127.813 534.747 127.36 536.56C126.68 541.093 126 545.74 125.32 550.5C124.64 555.26 123.96 560.247 123.28 565.46ZM76.7 549.14C81.46 547.1 85.88 545.06 89.96 543.02C90.64 543.927 90.98 544.38 90.98 544.38C90.5267 545.513 90.0733 546.76 89.62 548.12C89.1667 549.253 88.7133 550.5 88.26 551.86C88.7133 551.86 89.0533 551.973 89.28 552.2C89.7333 552.427 90.1867 552.427 90.64 552.2C93.1333 551.067 94.72 548.8 95.4 545.4C96.76 540.187 98.0067 535.087 99.14 530.1C100.5 524.887 101.747 519.673 102.88 514.46C102.88 514.007 102.88 513.667 102.88 513.44C103.107 513.213 103.22 512.873 103.22 512.42C103.447 508.34 104.013 504.373 104.92 500.52C106.053 496.667 107.073 492.7 107.98 488.62C108.207 487.94 108.433 487.26 108.66 486.58C108.887 485.673 108.887 484.767 108.66 483.86C108.207 482.5 108.207 481.253 108.66 480.12C109.113 478.76 109.453 477.4 109.68 476.04C110.133 474.907 110.36 473.66 110.36 472.3C110.36 470.94 110.36 469.693 110.36 468.56C110.36 467.88 110.36 467.54 110.36 467.54C111.72 466.407 112.627 465.273 113.08 464.14C113.76 462.78 114.213 461.307 114.44 459.72C114.667 458.133 114.78 456.547 114.78 454.96C115.007 453.373 115.347 451.9 115.8 450.54C117.16 447.82 118.067 444.987 118.52 442.04C119.2 439.093 119.88 436.033 120.56 432.86C121.013 430.367 121.353 427.987 121.58 425.72C121.807 423.453 122.147 421.073 122.6 418.58C123.053 414.727 123.62 410.873 124.3 407.02C124.98 403.167 125.547 399.2 126 395.12C121.467 396.707 117.273 398.52 113.42 400.56C109.793 402.373 106.507 404.64 103.56 407.36C100.613 408.04 97.8933 408.153 95.4 407.7C93.1333 407.02 90.7533 406.113 88.26 404.98L83.5 397.84C83.9533 397.387 84.2933 396.933 84.52 396.48C84.7467 395.8 85.0867 395.233 85.54 394.78C89.3933 390.927 93.4733 387.527 97.78 384.58C102.087 381.633 106.847 379.027 112.06 376.76C119.313 373.587 126.567 370.413 133.82 367.24C141.073 364.067 148.667 361.573 156.6 359.76C165.213 357.947 173.373 357.04 181.08 357.04C191.96 357.04 201.82 359.647 210.66 364.86C219.5 369.847 226.187 377.44 230.72 387.64C232.08 390.36 232.76 393.193 232.76 396.14C233.893 407.7 231.4 418.24 225.28 427.76C222.56 431.84 220.067 435.24 217.8 437.96C215.08 440.68 212.7 443.06 210.66 445.1C208.62 446.913 206.58 448.613 204.54 450.2C202.5 451.787 200.233 453.373 197.74 454.96C195.473 456.547 192.753 458.247 189.58 460.06C187.087 461.42 184.593 462.78 182.1 464.14C179.833 465.273 177.453 466.52 174.96 467.88C174.507 468.333 173.94 468.787 173.26 469.24C172.807 469.693 172.24 470.147 171.56 470.6C172.693 471.507 173.6 472.413 174.28 473.32C174.96 474 175.867 474.68 177 475.36C185.613 481.707 193.32 489.3 200.12 498.14C206.92 506.753 212.02 516.273 215.42 526.7C217.007 531.233 217.46 535.087 216.78 538.26C216.327 540.527 215.987 542.793 215.76 545.06C215.533 547.327 214.967 549.48 214.06 551.52C213.153 554.24 211.907 556.733 210.32 559C208.96 561.04 207.147 563.08 204.88 565.12C200.8 568.293 196.493 571.24 191.96 573.96C187.427 576.453 182.893 578.947 178.36 581.44C176.32 582.347 174.507 582.913 172.92 583.14C170.2 584.047 167.48 584.84 164.76 585.52C162.267 586.427 159.66 587.333 156.94 588.24C155.127 588.92 152.52 589.487 149.12 589.94C145.947 590.62 142.547 591.187 138.92 591.64C135.52 592.32 132.007 592.773 128.38 593C124.98 593.453 122.26 593.68 120.22 593.68C115.687 593.68 111.04 593.453 106.28 593C101.52 592.547 96.8733 591.527 92.34 589.94C88.0333 588.58 84.0667 586.54 80.44 583.82C76.8133 581.327 73.8667 577.813 71.6 573.28C69.3333 568.52 69.22 564.213 71.26 560.36C71.94 558.547 72.7333 556.733 73.64 554.92C74.5467 553.107 75.5667 551.18 76.7 549.14ZM265.336 501.54C267.83 501.087 270.096 500.747 272.136 500.52C274.176 500.293 275.876 499.613 277.236 498.48C281.77 495.533 285.963 492.36 289.816 488.96C293.896 485.56 297.523 481.593 300.696 477.06C302.283 474.793 303.076 472.64 303.076 470.6C303.303 468.333 302.963 465.953 302.056 463.46C293.216 461.647 286.756 464.253 282.676 471.28C281.77 472.64 280.75 474 279.616 475.36C278.71 476.493 277.916 477.74 277.236 479.1C275.423 482.5 273.496 485.447 271.456 487.94C269.643 489.753 268.396 491.793 267.716 494.06C267.036 496.1 266.243 498.593 265.336 501.54ZM412.556 554.24C414.37 553.56 415.956 552.54 417.316 551.18C418.903 549.82 420.376 548.573 421.736 547.44C422.416 547.44 423.096 547.44 423.776 547.44C424.456 547.44 425.363 547.553 426.496 547.78C428.083 546.193 429.67 544.607 431.256 543.02C433.07 541.433 434.883 539.733 436.696 537.92C439.19 534.747 441.683 531.46 444.176 528.06C446.896 524.66 449.503 521.26 451.996 517.86C452.903 516.953 453.47 516.16 453.696 515.48C454.15 514.573 454.49 513.78 454.716 513.1C455.17 512.193 455.736 511.287 456.416 510.38C457.096 509.7 458.343 508.907 460.156 508C460.61 506.64 460.723 505.393 460.496 504.26C460.27 502.9 460.836 501.653 462.196 500.52C462.876 500.067 463.33 499.5 463.556 498.82C464.01 498.14 464.463 497.46 464.916 496.78C465.37 494.967 465.936 493.493 466.616 492.36C467.523 491 468.883 489.98 470.696 489.3C471.376 489.073 472.17 488.053 473.076 486.24C474.21 483.067 475.91 480.233 478.176 477.74C480.67 475.247 483.276 473.093 485.996 471.28C487.13 471.28 487.923 472.073 488.376 473.66C488.83 475.02 489.963 475.02 491.776 473.66C493.363 472.753 494.95 473.32 496.536 475.36C495.856 477.853 495.176 480.46 494.496 483.18C493.816 485.673 492.683 488.167 491.096 490.66C490.643 491.567 490.19 492.587 489.736 493.72C489.51 494.627 489.17 495.647 488.716 496.78C487.13 503.353 485.203 509.36 482.936 514.8C480.67 520.24 478.063 525.453 475.116 530.44C472.396 535.2 469.223 539.96 465.596 544.72C462.196 549.253 458.343 554.013 454.036 559C448.823 565.12 443.156 570.447 437.036 574.98C434.543 576.793 431.823 578.493 428.876 580.08C425.93 581.893 422.643 582.573 419.016 582.12C416.75 582.8 414.483 583.14 412.216 583.14C409.043 583.14 405.983 582.46 403.036 581.1C400.09 579.967 397.256 578.38 394.536 576.34C392.723 574.98 391.25 574.187 390.116 573.96C386.943 573.28 384.903 571.127 383.996 567.5C383.316 564.553 382.296 561.833 380.936 559.34C379.803 556.62 378.67 553.9 377.536 551.18C375.723 545.967 374.25 540.64 373.116 535.2C371.983 529.76 371.416 524.207 371.416 518.54C371.416 516.727 371.416 514.8 371.416 512.76C371.416 510.72 371.303 508.34 371.076 505.62C368.583 509.473 366.203 512.987 363.936 516.16C361.67 519.333 359.63 522.62 357.816 526.02C353.283 533.953 346.936 541.887 338.776 549.82C330.843 557.527 323.25 564.327 315.996 570.22C313.503 572.26 310.67 573.96 307.496 575.32C304.55 576.453 301.49 577.473 298.316 578.38C296.73 578.833 295.143 579.173 293.556 579.4C291.97 579.627 290.383 579.967 288.796 580.42C287.436 580.873 286.076 581.213 284.716 581.44C283.583 581.667 282.336 581.78 280.976 581.78C277.576 581.78 274.516 580.873 271.796 579.06C271.116 578.607 270.21 578.38 269.076 578.38C267.943 578.38 266.81 578.153 265.676 577.7C263.183 575.887 260.463 573.96 257.516 571.92C254.796 569.653 251.85 567.273 248.676 564.78C244.823 558.433 242.216 551.747 240.856 544.72C239.27 537.467 238.25 530.1 237.796 522.62C236.663 520.127 235.19 517.973 233.376 516.16C231.563 514.12 230.203 511.853 229.296 509.36C229.75 508 230.316 506.64 230.996 505.28C231.45 503.92 231.903 502.447 232.356 500.86C235.303 498.367 238.363 496.78 241.536 496.1C244.936 495.873 246.976 494.06 247.656 490.66C248.79 486.58 250.15 482.727 251.736 479.1C253.55 475.473 255.703 472.073 258.196 468.9C259.33 467.54 260.236 466.293 260.916 465.16C261.596 463.8 262.276 462.553 262.956 461.42C267.716 458.02 271.91 454.96 275.536 452.24C276.216 451.787 276.896 451.333 277.576 450.88C278.483 450.2 279.39 449.52 280.296 448.84C283.923 446.347 287.776 445.1 291.856 445.1C297.976 445.1 303.303 446.687 307.836 449.86C312.596 452.807 316.223 457.227 318.716 463.12C319.17 464.027 319.51 464.933 319.736 465.84C319.963 466.747 320.303 467.54 320.756 468.22C322.343 469.807 323.136 471.847 323.136 474.34C323.136 475.247 323.25 476.153 323.476 477.06C323.703 477.74 323.59 478.42 323.136 479.1C322.003 481.367 321.436 483.747 321.436 486.24C321.663 488.507 320.983 490.773 319.396 493.04C313.276 501.88 305.91 509.587 297.296 516.16C288.683 522.507 278.823 526.247 267.716 527.38C266.81 527.607 265.903 527.947 264.996 528.4C264.316 528.627 263.41 528.967 262.276 529.42C262.503 531.46 262.616 533.387 262.616 535.2C262.843 536.787 263.183 538.487 263.636 540.3C264.77 544.833 267.036 548.687 270.436 551.86C273.836 554.807 278.143 556.28 283.356 556.28C287.21 556.28 290.836 555.487 294.236 553.9C297.863 552.087 301.263 549.933 304.436 547.44C307.836 544.72 310.896 541.887 313.616 538.94C316.336 535.767 318.83 532.82 321.096 530.1C322.456 528.287 324.043 526.7 325.856 525.34C337.416 514.687 347.163 502.333 355.096 488.28C363.256 474.227 370.623 460.287 377.196 446.46C378.783 443.06 380.37 439.773 381.956 436.6C383.543 433.2 384.903 429.687 386.036 426.06C387.623 421.98 389.096 417.9 390.456 413.82C391.816 409.74 392.723 405.433 393.176 400.9C393.403 399.767 393.63 398.633 393.856 397.5C394.083 396.367 394.31 395.233 394.536 394.1C394.99 392.287 395.33 390.587 395.556 389C396.01 387.187 396.463 385.373 396.916 383.56C397.596 381.067 398.163 378.573 398.616 376.08C399.07 373.587 399.863 371.093 400.996 368.6C402.81 364.067 404.283 359.533 405.416 355C406.776 350.24 408.023 345.48 409.156 340.72C409.61 338.907 410.063 337.207 410.516 335.62C410.97 334.033 411.423 332.56 411.876 331.2C414.37 328.707 416.976 327.12 419.696 326.44C422.643 325.533 425.703 324.967 428.876 324.74C430.916 327.233 432.163 329.84 432.616 332.56C433.07 335.053 433.07 338 432.616 341.4C431.936 346.387 430.916 351.26 429.556 356.02C428.423 360.78 427.516 365.653 426.836 370.64C426.156 374.947 425.25 379.14 424.116 383.22C422.983 387.073 422.19 391.153 421.736 395.46C421.283 399.087 420.603 402.713 419.696 406.34C419.016 409.74 418.336 413.14 417.656 416.54C417.203 419.94 416.75 423.34 416.296 426.74C415.843 430.14 415.05 433.427 413.916 436.6C413.463 437.733 413.123 438.98 412.896 440.34C412.896 441.7 412.896 443.06 412.896 444.42C412.443 446.913 412.103 449.52 411.876 452.24C411.65 454.733 410.97 457.227 409.836 459.72C409.156 460.627 408.816 461.873 408.816 463.46C408.816 465.5 408.59 467.54 408.136 469.58C407.683 471.62 407.116 473.66 406.436 475.7C404.85 480.007 403.716 484.427 403.036 488.96C402.583 493.493 401.903 498.027 400.996 502.56C400.543 504.373 400.203 506.3 399.976 508.34C399.976 510.153 399.75 512.08 399.296 514.12C398.843 517.52 398.616 520.92 398.616 524.32C398.843 527.72 399.183 531.12 399.636 534.52C400.77 543.36 405.076 549.933 412.556 554.24ZM542.078 484.2C543.211 483.747 543.891 483.18 544.118 482.5C544.344 481.593 544.344 480.8 544.118 480.12C543.438 477.627 542.644 475.36 541.738 473.32C541.058 471.053 540.264 468.787 539.358 466.52C538.224 466.067 537.091 465.613 535.958 465.16C535.051 464.707 534.144 464.253 533.238 463.8C532.104 466.067 531.424 467.653 531.198 468.56C531.198 469.24 531.424 470.147 531.878 471.28C533.011 473.773 534.371 476.153 535.958 478.42C537.544 480.687 539.584 482.613 542.078 484.2ZM504.338 477.4C502.978 479.44 501.958 481.593 501.278 483.86C500.598 485.9 499.918 488.053 499.238 490.32C497.878 494.627 496.858 499.047 496.178 503.58C495.498 507.887 494.591 512.307 493.458 516.84C492.551 520.693 491.871 524.887 491.418 529.42C491.191 532.14 491.078 534.86 491.078 537.58C491.304 540.3 491.418 543.133 491.418 546.08C491.418 546.987 491.531 547.893 491.758 548.8C492.211 549.707 492.664 550.613 493.118 551.52C493.571 553.56 494.704 554.807 496.518 555.26C498.558 555.713 500.484 555.94 502.298 555.94C507.284 555.94 511.704 554.013 515.558 550.16C519.638 546.307 522.811 542.453 525.078 538.6C525.531 537.467 526.211 536.9 527.118 536.9C528.024 536.673 529.044 536.447 530.178 536.22C530.404 531.913 532.331 527.947 535.958 524.32C539.358 520.92 540.718 516.727 540.038 511.74C537.544 510.833 534.938 509.587 532.218 508C530.404 507.093 529.158 506.187 528.478 505.28C527.798 503.693 526.891 502.56 525.758 501.88C524.624 501.2 523.378 500.52 522.018 499.84C519.524 498.933 517.371 497.687 515.558 496.1C513.744 494.513 512.498 492.587 511.818 490.32C510.911 487.827 509.664 485.673 508.078 483.86C506.718 482.047 505.471 479.893 504.338 477.4ZM470.678 564.1C467.504 557.527 465.804 551.18 465.578 545.06C465.351 538.713 465.804 532.367 466.938 526.02C468.524 517.407 470.224 508.907 472.038 500.52C473.851 491.907 476.571 483.52 480.198 475.36C482.011 471.507 483.938 467.653 485.978 463.8C488.018 459.72 489.944 455.753 491.758 451.9C492.438 450.767 493.004 449.747 493.458 448.84C494.138 447.933 494.931 447.14 495.838 446.46C497.878 444.647 499.918 442.833 501.958 441.02C503.998 439.207 506.264 437.62 508.758 436.26C509.891 437.393 510.118 438.3 509.438 438.98C508.758 439.433 508.304 440 508.078 440.68C508.531 441.133 508.984 441.36 509.438 441.36C509.891 441.133 511.478 440.113 514.198 438.3C515.331 438.073 516.351 438.413 517.258 439.32C518.164 440 519.298 440 520.658 439.32C521.791 438.867 522.924 439.093 524.058 440C525.191 440.68 526.438 441.133 527.798 441.36C533.691 441.36 539.131 442.607 544.118 445.1C549.331 447.367 553.184 451.333 555.678 457C557.264 460.173 558.738 463.46 560.098 466.86C561.458 470.033 562.024 473.547 561.798 477.4C561.798 478.533 562.024 479.667 562.478 480.8C563.158 481.707 563.611 482.727 563.838 483.86C564.291 484.767 564.404 485.673 564.178 486.58C564.178 487.487 564.291 488.393 564.518 489.3C567.464 491.113 570.184 492.02 572.678 492.02C573.584 492.02 574.944 491.793 576.758 491.34C581.971 491.567 586.731 490.773 591.038 488.96C595.571 486.92 600.218 485.333 604.978 484.2C606.791 483.747 608.378 483.18 609.738 482.5C611.324 481.593 613.024 480.913 614.838 480.46C616.878 479.553 618.918 478.76 620.958 478.08C623.224 477.173 625.378 476.267 627.418 475.36C628.324 477.627 628.891 479.213 629.118 480.12C630.931 480.8 632.291 480.573 633.198 479.44C634.331 478.307 635.691 477.967 637.278 478.42C637.731 478.873 637.958 479.1 637.958 479.1C637.958 480.913 637.844 482.727 637.618 484.54C637.618 486.127 637.618 487.827 637.618 489.64C634.218 492.813 630.704 495.873 627.078 498.82C623.678 501.54 619.711 503.467 615.178 504.6C612.684 505.28 610.418 506.3 608.378 507.66C606.338 508.793 604.184 509.813 601.918 510.72C598.064 511.853 594.098 512.987 590.018 514.12C586.164 515.253 582.311 516.387 578.458 517.52C577.778 517.747 576.531 517.86 574.718 517.86C573.131 518.087 571.658 518.313 570.298 518.54C568.938 518.54 567.464 518.54 565.878 518.54C562.931 524.887 559.758 530.893 556.358 536.56C552.958 542 549.331 547.553 545.478 553.22C544.798 554.127 544.118 554.92 543.438 555.6C542.984 556.28 542.531 557.073 542.078 557.98C540.038 562.967 536.638 566.82 531.878 569.54C531.424 569.993 530.858 570.447 530.178 570.9C529.724 571.127 529.271 571.467 528.818 571.92C524.058 576.68 518.391 579.4 511.818 580.08C510.004 580.533 508.304 580.873 506.718 581.1C505.358 581.327 503.771 581.553 501.958 581.78C499.918 582.233 497.878 582.347 495.838 582.12C493.798 582.12 491.758 581.667 489.718 580.76C485.864 579.4 483.031 577.36 481.218 574.64C478.271 570.107 474.758 566.593 470.678 564.1ZM652.899 583.48C651.766 583.253 650.746 583.027 649.839 582.8C649.159 582.8 648.252 582.8 647.119 582.8C642.586 582.8 638.846 581.667 635.899 579.4C633.179 577.133 630.799 573.96 628.759 569.88C626.039 563.987 623.999 558.093 622.639 552.2C621.279 546.307 620.032 540.3 618.899 534.18C617.992 529.42 617.539 524.66 617.539 519.9C617.539 514.913 616.972 510.04 615.839 505.28C615.386 504.147 615.272 503.127 615.499 502.22C615.726 501.313 615.726 500.407 615.499 499.5C615.499 497.007 615.499 494.627 615.499 492.36C615.499 490.093 615.272 487.94 614.819 485.9C613.459 480.687 613.346 475.133 614.479 469.24C614.932 467.427 615.272 466.067 615.499 465.16C615.726 464.253 616.179 463.46 616.859 462.78C617.312 461.873 617.992 460.967 618.899 460.06C619.806 459.153 621.052 458.02 622.639 456.66C623.772 456.66 624.679 456.547 625.359 456.32C629.892 455.64 633.292 456.66 635.559 459.38C638.052 462.1 639.639 465.16 640.319 468.56C640.999 472.187 641.452 475.813 641.679 479.44C642.132 482.84 642.472 486.24 642.699 489.64C642.926 492.133 643.152 494.627 643.379 497.12C643.832 499.387 643.832 501.767 643.379 504.26C642.926 506.3 642.926 508.453 643.379 510.72C643.832 512.987 644.172 515.253 644.399 517.52C645.079 525.227 646.439 532.593 648.479 539.62C648.706 540.073 648.932 540.413 649.159 540.64C649.386 540.867 649.612 541.207 649.839 541.66C650.972 541.207 651.652 540.64 651.879 539.96C652.106 539.28 652.446 538.6 652.899 537.92C655.392 532.707 658.566 528.173 662.419 524.32C663.779 522.96 665.026 521.147 666.159 518.88C669.332 512.307 672.392 505.733 675.339 499.16C678.512 492.587 681.912 486.013 685.539 479.44C686.672 477.4 687.806 475.473 688.939 473.66C690.299 471.847 691.432 469.92 692.339 467.88C694.379 463.573 696.759 459.72 699.479 456.32C702.426 452.693 705.259 448.953 707.979 445.1C709.566 444.647 711.152 444.193 712.739 443.74C714.326 443.06 716.026 442.493 717.839 442.04C718.972 442.947 720.106 443.853 721.239 444.76C722.372 445.667 723.506 446.573 724.639 447.48C725.772 450.88 725.999 454.053 725.319 457C724.866 459.72 723.619 462.553 721.579 465.5C718.406 469.807 715.572 474.227 713.079 478.76C710.812 483.293 708.319 487.827 705.599 492.36C702.879 496.893 700.499 501.54 698.459 506.3C696.646 511.06 694.719 515.82 692.679 520.58C689.732 527.38 686.672 534.067 683.499 540.64C680.326 547.213 677.039 553.787 673.639 560.36C671.146 564.893 668.312 569.087 665.139 572.94C661.966 576.793 657.886 580.307 652.899 583.48ZM802.374 465.16C801.241 462.667 799.768 460.967 797.954 460.06C796.368 458.927 794.668 458.36 792.854 458.36C786.961 458.36 781.748 460.4 777.214 464.48C772.681 468.333 768.714 472.413 765.314 476.72C761.688 480.573 759.194 485.22 757.834 490.66C758.968 491.793 760.214 492.36 761.574 492.36C763.161 492.36 764.408 492.587 765.314 493.04C767.581 494.853 769.734 495.533 771.774 495.08C774.041 494.627 776.308 494.627 778.574 495.08C781.068 495.08 783.561 493.947 786.054 491.68C788.774 489.187 791.268 486.353 793.534 483.18C795.801 480.007 797.728 476.72 799.314 473.32C800.901 469.92 801.921 467.2 802.374 465.16ZM886.694 463.46C885.788 464.593 885.108 465.613 884.654 466.52C884.201 467.2 883.634 467.993 882.954 468.9C884.088 469.353 885.108 469.807 886.014 470.26C887.148 470.487 887.941 470.94 888.394 471.62C888.848 472.527 889.188 473.547 889.414 474.68C889.641 475.587 889.981 476.607 890.434 477.74C885.674 485.673 880.348 492.813 874.454 499.16C868.561 505.507 862.668 511.967 856.774 518.54C847.254 528.74 837.281 538.94 826.854 549.14C816.654 559.113 805.434 567.5 793.194 574.3C789.568 576.567 785.601 578.153 781.294 579.06C776.988 579.967 772.681 580.42 768.374 580.42C766.561 580.42 764.748 580.307 762.934 580.08C761.348 579.853 759.761 579.173 758.174 578.04C757.721 577.813 757.268 577.587 756.814 577.36C756.588 577.36 756.248 577.247 755.794 577.02C753.301 576.113 750.808 575.32 748.314 574.64C745.821 573.733 743.668 572.147 741.854 569.88C739.361 566.707 736.981 563.533 734.714 560.36C732.448 557.187 730.748 553.447 729.614 549.14C728.708 545.287 727.914 541.32 727.234 537.24C726.554 533.16 726.328 529.08 726.554 525C726.554 520.92 727.121 516.387 728.254 511.4C729.161 506.413 730.634 501.54 732.674 496.78C734.488 491.793 736.641 487.033 739.134 482.5C741.628 477.967 744.348 474.227 747.294 471.28L754.774 463.8C756.134 462.667 757.381 461.307 758.514 459.72C759.874 458.133 761.688 457.113 763.954 456.66C764.408 456.66 764.974 456.32 765.654 455.64C770.188 451.56 775.174 448.613 780.614 446.8C786.054 444.987 791.608 443.287 797.274 441.7C803.394 442.607 809.174 444.647 814.614 447.82C817.561 449.18 819.488 451.22 820.394 453.94C821.528 456.66 823.001 459.153 824.814 461.42C826.174 461.873 827.194 462.1 827.874 462.1C828.328 466.18 827.988 470.147 826.854 474C825.721 477.627 824.021 481.027 821.754 484.2C819.034 488.733 816.314 492.927 813.594 496.78C810.874 500.407 807.928 503.807 804.754 506.98C801.808 509.927 798.294 512.647 794.214 515.14C790.361 517.407 785.828 519.333 780.614 520.92C779.481 521.147 778.461 521.26 777.554 521.26C776.648 521.26 775.741 521.26 774.834 521.26C772.341 521.033 769.961 520.92 767.694 520.92C765.654 520.693 763.501 520.353 761.234 519.9C759.648 519.447 758.174 518.88 756.814 518.2C755.454 517.52 753.868 516.84 752.054 516.16C751.601 516.84 751.148 517.52 750.694 518.2C750.468 518.653 750.354 519.22 750.354 519.9C750.128 521.713 749.901 523.527 749.674 525.34C749.674 526.927 749.788 528.627 750.014 530.44C750.468 532.253 750.808 534.18 751.034 536.22C751.488 538.26 751.941 540.187 752.394 542C753.074 545.173 754.094 547.327 755.454 548.46C756.814 549.367 759.194 549.933 762.594 550.16C765.314 550.16 768.034 550.047 770.754 549.82C773.474 549.593 776.081 548.8 778.574 547.44C780.841 546.307 782.994 545.173 785.034 544.04C787.301 542.907 789.341 541.547 791.154 539.96C800.448 533.387 809.514 526.473 818.354 519.22C827.194 511.967 835.581 504.26 843.514 496.1C844.194 495.42 845.554 494.173 847.594 492.36C849.634 490.32 851.788 488.28 854.054 486.24C856.321 483.973 858.474 481.933 860.514 480.12C862.554 478.307 863.801 477.287 864.254 477.06C868.108 475.7 871.508 473.773 874.454 471.28C877.401 468.787 880.461 466.407 883.634 464.14C883.861 463.913 884.881 463.687 886.694 463.46ZM923.438 478.42C922.305 477.06 920.945 476.38 919.358 476.38C917.998 476.153 916.638 476.04 915.278 476.04C912.105 476.04 909.271 476.833 906.778 478.42C894.991 487.487 887.625 498.933 884.678 512.76C884.225 515.933 883.998 519.333 883.998 522.96C883.998 526.36 884.225 529.76 884.678 533.16C885.131 538.6 887.625 543.133 892.158 546.76C893.518 546.533 894.878 546.307 896.238 546.08C897.825 545.853 899.298 545.627 900.658 545.4C901.111 544.947 901.338 544.72 901.338 544.72C901.338 544.493 901.451 544.267 901.678 544.04C904.398 539.053 906.551 533.84 908.138 528.4C909.725 522.96 911.991 517.747 914.938 512.76C915.165 512.533 915.278 511.967 915.278 511.06C915.731 506.98 916.525 503.013 917.658 499.16C919.018 495.307 920.265 491.453 921.398 487.6C922.531 484.427 923.211 481.367 923.438 478.42ZM957.438 541.66C961.745 543.02 964.805 542.453 966.618 539.96C967.978 538.147 969.338 536.447 970.698 534.86C972.058 533.273 973.418 531.573 974.778 529.76C975.231 529.987 976.025 530.1 977.158 530.1C977.611 528.967 978.065 527.947 978.518 527.04C979.198 526.133 979.991 524.887 980.898 523.3C981.805 524.433 982.485 525.453 982.938 526.36C983.618 527.04 984.298 527.833 984.978 528.74C986.338 528.513 987.698 528.287 989.058 528.06C990.418 527.833 991.891 527.607 993.478 527.38C993.931 528.967 994.271 530.553 994.498 532.14C994.725 533.5 995.065 534.747 995.518 535.88C993.478 539.507 991.665 543.133 990.078 546.76C989.625 548.347 988.945 549.82 988.038 551.18C987.131 552.313 986.111 553.56 984.978 554.92C983.618 556.28 982.258 557.753 980.898 559.34C979.765 560.927 978.631 562.4 977.498 563.76C976.138 565.347 974.778 566.707 973.418 567.84C970.925 569.653 968.205 570.673 965.258 570.9C962.311 571.127 959.365 571.353 956.418 571.58C952.111 571.58 947.918 570.447 943.838 568.18C939.985 565.687 937.378 562.287 936.018 557.98C935.111 555.26 934.205 552.54 933.298 549.82C932.618 546.873 931.711 543.813 930.578 540.64C929.445 543.133 928.311 545.513 927.178 547.78C926.271 549.82 925.251 551.86 924.118 553.9C922.758 554.353 921.511 554.807 920.378 555.26C919.018 558.207 917.091 560.813 914.598 563.08C912.331 565.12 909.951 567.16 907.458 569.2C906.325 570.333 904.851 571.24 903.038 571.92C901.451 572.373 899.865 572.94 898.278 573.62C897.145 574.073 895.898 574.3 894.538 574.3C893.178 574.073 891.931 573.847 890.798 573.62C889.665 573.62 888.645 573.507 887.738 573.28C886.831 573.053 885.925 572.94 885.018 572.94C882.978 572.487 880.711 571.693 878.218 570.56C875.725 569.2 873.345 567.613 871.078 565.8C868.811 563.987 866.771 562.06 864.958 560.02C863.145 557.753 862.011 555.713 861.558 553.9C860.425 549.593 859.405 545.4 858.498 541.32C857.365 537.013 857.138 532.593 857.818 528.06C858.271 526.927 858.271 525.68 857.818 524.32C856.911 520.693 856.911 517.18 857.818 513.78C858.498 510.153 859.065 506.64 859.518 503.24C859.971 500.747 860.651 498.367 861.558 496.1C862.465 493.607 864.165 491.567 866.658 489.98C867.791 489.3 868.585 488.393 869.038 487.26C869.718 485.9 870.285 484.653 870.738 483.52C871.418 481.027 872.778 478.873 874.818 477.06C876.858 475.247 878.785 473.32 880.598 471.28C882.638 469.24 884.678 467.313 886.718 465.5C887.171 465.047 887.625 464.707 888.078 464.48C888.758 464.027 889.325 463.573 889.778 463.12C894.765 461.307 899.638 459.38 904.398 457.34C909.158 455.3 914.145 454.28 919.358 454.28C920.491 454.28 921.625 454.28 922.758 454.28C923.891 454.28 925.025 454.507 926.158 454.96C926.611 454.96 927.291 454.733 928.198 454.28C929.331 453.147 929.898 451.9 929.898 450.54C930.125 448.953 930.465 447.593 930.918 446.46C931.371 445.327 931.485 444.193 931.258 443.06C931.258 441.927 931.485 440.793 931.938 439.66C933.298 436.713 933.298 433.88 931.938 431.16C931.485 430.48 931.371 429.8 931.598 429.12C931.825 428.213 931.938 427.307 931.938 426.4H934.318C934.545 425.947 934.771 425.72 934.998 425.72C935.225 425.493 935.338 425.153 935.338 424.7C935.565 422.433 935.791 420.28 936.018 418.24C936.245 415.973 936.471 413.707 936.698 411.44C936.698 410.533 936.585 409.74 936.358 409.06C936.358 408.153 936.585 407.36 937.038 406.68C938.851 402.6 939.985 398.407 940.438 394.1C941.118 389.793 941.911 385.373 942.818 380.84C943.951 374.267 945.198 367.807 946.558 361.46C948.145 355.113 949.845 348.653 951.658 342.08C951.658 341.4 951.885 340.38 952.338 339.02C952.791 337.207 953.131 335.507 953.358 333.92C953.585 332.107 954.038 330.407 954.718 328.82C955.171 327.233 955.851 325.873 956.758 324.74C957.891 323.38 959.025 321.793 960.158 319.98C961.065 320.207 961.858 320.433 962.538 320.66C963.445 320.66 964.465 320.66 965.598 320.66C966.278 320.433 966.958 320.207 967.638 319.98C968.545 319.753 969.225 319.527 969.678 319.3C973.531 321.113 975.911 323.493 976.818 326.44C977.725 329.387 977.951 332.56 977.498 335.96C977.045 340.267 976.591 344.573 976.138 348.88C975.685 352.96 975.118 357.153 974.438 361.46C973.985 365.087 973.418 368.713 972.738 372.34C972.058 375.967 971.151 379.593 970.018 383.22C966.391 398.18 964.011 413.593 962.878 429.46C962.425 436.033 961.971 442.72 961.518 449.52C961.291 456.093 960.951 462.667 960.498 469.24C960.498 471.053 960.385 472.3 960.158 472.98C959.025 476.607 958.345 480.233 958.118 483.86C958.118 487.26 958.118 490.773 958.118 494.4C958.118 494.853 958.118 495.533 958.118 496.44C958.345 497.12 958.345 497.687 958.118 498.14C956.531 501.993 956.078 505.507 956.758 508.68C957.211 510.267 957.098 511.853 956.418 513.44C955.965 514.8 956.191 516.387 957.098 518.2C957.098 522.053 957.098 525.907 957.098 529.76C957.325 533.613 957.438 537.58 957.438 541.66Z" fill="#0223C6"/>
<path d="M380.697 787C377.837 785.02 375.197 784.36 373.657 781.72C372.337 779.3 371.457 776.88 371.677 774.02C372.557 760.82 373.657 747.62 373.657 734.2C373.657 731.78 373.217 729.36 373.217 726.94C372.997 721 373.217 715.06 373.877 709.34C374.097 705.82 375.417 702.3 376.297 699C377.177 696.14 379.597 694.82 382.017 692.84C382.897 693.06 383.997 692.84 384.877 693.06C388.397 694.38 391.917 694.38 395.437 694.16C402.477 693.72 409.297 694.16 416.117 695.48C418.317 695.7 420.517 697.24 422.497 698.34C424.037 699.22 424.257 702.52 423.377 704.28C422.277 706.26 421.177 707.36 418.537 707.36C415.017 707.36 411.717 708.68 408.197 708.68C404.897 708.68 401.597 709.12 398.077 709.34C396.097 709.56 394.117 710.66 392.357 711.1C391.037 715.94 390.817 720.56 391.477 727.6C393.677 729.58 396.317 729.8 399.177 729.36C400.937 729.14 402.477 728.92 404.237 728.7C408.197 728.26 412.157 728.48 416.117 729.58C419.417 730.46 421.177 732.22 421.397 735.52C420.517 736.84 419.417 738.16 418.537 739.48C418.317 739.92 417.877 740.14 417.657 740.36C413.257 741.9 409.517 744.54 404.677 744.98C400.277 745.2 396.097 746.3 391.917 746.74C390.597 748.94 390.377 750.7 390.157 752.68C390.157 755.1 389.937 757.74 389.937 760.16C390.157 766.32 388.837 772.26 388.617 778.42C388.617 780.18 387.517 781.94 387.077 783.7C384.877 784.8 382.897 785.9 380.697 787ZM443.775 768.3C444.655 760.6 445.535 752.9 445.315 744.98C445.095 741.24 445.755 737.5 445.975 733.76C446.195 732.22 446.195 730.9 446.195 729.36C446.635 723.64 447.295 718.14 447.515 712.42C447.735 711.32 447.295 710 447.295 708.68C444.655 707.8 442.455 708.24 440.035 708.46C436.955 708.68 434.315 707.14 431.895 705.82C430.575 705.16 429.695 703.62 429.915 702.08V698.34C430.575 697.9 431.675 697.46 432.115 696.58C433.655 694.16 435.855 693.28 438.495 693.28C443.995 693.28 449.495 691.96 454.995 692.18C460.275 692.62 465.555 692.4 470.175 692.4C473.035 693.94 475.455 695.48 477.655 696.8V702.96C476.775 704.28 475.675 705.6 474.575 707.14C471.495 707.8 468.195 708.68 464.675 709.56C463.355 713.3 463.135 717.26 463.135 721.22C463.135 729.36 462.255 737.28 461.815 745.2C461.595 751.36 461.375 757.3 461.375 763.46C461.155 764.78 461.595 765.88 461.595 766.98C463.135 768.52 464.675 768.08 465.995 767.64C470.395 766.54 473.695 768.96 476.775 771.6C478.095 772.7 478.315 774.9 479.195 776.44C477.655 778.86 476.335 780.84 475.015 782.82C470.835 784.8 466.215 784.58 461.815 784.8C453.895 785.68 445.975 785.24 438.275 787C433.875 785.9 429.695 784.8 429.035 778.86C429.255 778.2 429.475 776.66 430.135 775.34C430.795 773.8 432.115 772.26 433.875 772.26C437.615 772.04 440.475 769.84 443.775 768.3ZM492.998 698.56C494.758 697.02 496.298 695.48 498.278 693.94C499.598 694.38 501.358 694.82 502.898 695.48C505.318 696.8 506.858 699 506.858 702.08C506.858 703.4 507.078 704.5 507.298 705.82C507.738 709.34 507.738 712.86 507.298 716.38C506.638 724.08 505.098 731.78 505.758 739.7C505.978 744.54 505.098 749.6 504.658 754.66C504.658 756.2 504.218 757.52 504.218 759.06C504.218 761.48 504.438 764.12 504.438 766.1C505.538 767.42 506.638 767.42 507.738 767.42H515.878C518.738 767.2 521.158 768.3 523.358 770.28C524.458 771.6 525.778 772.7 526.438 773.58C528.638 777.54 525.118 780.18 524.898 783.26C522.918 784.36 520.938 785.02 518.958 785.02C517.638 785.02 516.318 784.8 514.998 784.36C514.118 783.92 513.238 783.92 512.358 783.92C511.038 783.92 509.498 784.14 508.178 784.36C505.758 784.36 503.558 784.58 501.358 785.02C499.818 785.46 498.718 786.12 496.738 787C494.978 786.34 492.558 785.46 490.138 784.58C487.938 780.18 486.618 775.34 486.398 770.28C486.398 764.12 487.718 758.18 487.498 752.02C487.498 744.54 489.478 737.06 489.918 729.58C490.358 719.24 492.118 709.12 492.998 698.56ZM594.987 729.36C593.887 730.9 593.227 731.78 592.567 732.66L587.287 741.9C584.427 746.74 582.227 748.28 578.047 748.28C576.727 748.28 574.967 748.28 572.987 747.84C571.227 745.86 569.247 744.1 567.487 741.9C565.727 739.92 565.067 737.5 564.407 735.08C563.307 731.12 562.427 726.94 561.327 722.76C561.107 721.88 560.887 720.78 559.567 720.12C558.247 721.88 558.027 723.86 557.807 725.84C556.707 731.78 556.487 737.94 555.167 743.88C553.407 752.24 553.187 760.6 551.647 768.96C551.427 770.28 551.207 771.82 551.207 773.36C550.987 777.98 549.667 782.38 545.707 786.12C544.607 786.34 542.847 786.78 541.307 787C540.647 786.56 540.207 786.34 539.767 785.9C538.887 785.24 538.447 784.14 537.567 783.7C535.807 782.38 535.147 780.84 535.587 778.64C536.467 775.56 535.367 772.48 536.027 769.4C536.687 766.32 536.247 763.02 536.467 759.94C536.907 754.88 537.347 749.82 538.007 744.98C538.227 743 538.667 741.24 538.667 739.26C538.667 733.54 539.767 728.04 541.087 722.54L542.407 713.96C543.067 709.78 544.387 706.04 545.267 702.3C545.707 700.32 547.027 699 549.007 698.12C551.207 697.24 553.187 695.48 554.947 694.38C558.687 693.5 561.987 694.38 564.847 696.14C567.927 697.9 569.907 700.54 571.447 703.62C572.547 706.48 574.087 708.9 575.407 711.54C576.287 713.52 577.167 715.72 578.047 717.7C579.367 717.92 579.587 717.04 580.027 716.38C581.347 714.18 582.447 711.98 583.767 709.78C584.207 709.12 584.647 708.24 585.307 708.02C588.387 706.7 589.707 704.06 591.467 701.64C593.007 699.22 594.987 697.02 598.067 696.14C598.947 695.7 600.047 695.26 600.707 694.6C602.247 692.62 604.007 693.06 606.207 693.72C607.527 695.7 609.287 697.9 610.607 700.32C612.367 703.18 612.367 713.08 612.367 716.38C612.367 722.98 612.147 729.36 613.027 735.96C613.687 740.36 613.687 745.2 613.247 749.82C612.587 755.54 613.027 761.04 613.907 766.76C614.567 770.72 614.787 774.9 615.667 779.3C614.567 781.06 613.467 783.04 612.147 785.02H603.347C602.467 783.92 601.807 782.6 600.707 781.5C596.527 777.54 596.087 772.26 595.867 766.98C595.647 762.8 596.087 758.62 595.647 754.44C594.987 748.94 595.647 743.44 595.647 737.94C595.647 735.52 595.427 733.1 594.987 729.36ZM633.286 766.98C638.346 767.86 640.106 768.52 643.406 768.52C645.166 768.52 647.366 768.3 650.666 767.86C657.926 765 659.686 759.5 659.686 752.24C659.686 749.38 649.786 744.1 647.366 743C640.766 739.7 635.486 735.08 632.406 728.26C632.186 727.38 631.526 726.72 631.086 726.06C631.086 715.94 636.586 699.88 646.486 695.04C650.006 693.28 653.746 691.08 658.366 691.74C663.426 690.42 667.826 692.62 672.226 694.38C675.086 695.48 675.746 696.8 675.526 700.1C675.306 701.64 675.306 703.18 675.086 704.72C673.986 705.38 673.106 706.04 671.786 706.7C670.026 706.04 668.266 705.82 666.726 705.82C662.326 705.82 658.366 707.8 654.186 709.78C651.546 713.3 648.686 716.82 648.026 722.1C649.126 722.76 650.226 723.64 651.546 724.3C656.166 726.5 660.346 729.14 664.086 732.66C665.846 734.42 668.266 735.52 670.246 737.06C671.566 739.26 672.666 741.46 673.986 743.44C677.726 749.38 678.826 755.54 677.286 762.14C676.186 768.3 673.106 773.14 669.586 777.76C667.386 780.18 661.886 783.26 658.806 783.92C655.946 784.8 653.306 785.9 650.226 785.68C647.586 785.68 645.166 785.46 642.746 786.56C641.426 787 639.666 786.78 638.346 786.34C635.486 785.68 632.626 784.8 629.766 783.92C628.446 781.28 625.366 779.74 624.706 776.44C627.566 773.36 630.426 770.28 633.286 766.98Z" fill="#0223C6"/>
</g>
<defs>
<clipPath id="clip0_2_28">
<rect width="1080" height="1080" fill="white"/>
</clipPath>
</defs>
</svg>
